<?xml version="1.0" encoding="UTF-8" standalone="no"?>
<svg
   xmlns:dc="http://purl.org/dc/elements/1.1/"
   xmlns:cc="http://creativecommons.org/ns#"
   xmlns:rdf="http://www.w3.org/1999/02/22-rdf-syntax-ns#"
   xmlns:svg="http://www.w3.org/2000/svg"
   xmlns="http://www.w3.org/2000/svg"
   xmlns:sodipodi="http://sodipodi.sourceforge.net/DTD/sodipodi-0.dtd"
   xmlns:inkscape="http://www.inkscape.org/namespaces/inkscape"
   inkscape:version="1.0 (4035a4fb49, 2020-05-01)"
   sodipodi:docname="css.svg"
   id="svg251"
   preserveAspectRatio="xMidYMid"
   version="1.1"
   viewBox="0 0 255.10962 289.3222"
   height="289.3222"
   width="255.10962">
  <metadata
     id="metadata257">
    <rdf:RDF>
      <cc:Work
         rdf:about="">
        <dc:format>image/svg+xml</dc:format>
        <dc:type
           rdf:resource="http://purl.org/dc/dcmitype/StillImage" />
      </cc:Work>
    </rdf:RDF>
  </metadata>
  <defs
     id="defs255" />
  <sodipodi:namedview
     inkscape:current-layer="g249"
     inkscape:window-maximized="1"
     inkscape:window-y="0"
     inkscape:window-x="0"
     inkscape:cy="109.73429"
     inkscape:cx="127.55481"
     inkscape:zoom="2.365651"
     showgrid="false"
     id="namedview253"
     inkscape:window-height="1021"
     inkscape:window-width="1920"
     inkscape:pageshadow="2"
     inkscape:pageopacity="0"
     guidetolerance="10"
     gridtolerance="10"
     objecttolerance="10"
     borderopacity="1"
     bordercolor="#666666"
     pagecolor="#ffffff" />
  <g
     transform="translate(-0.44518681,-70.765714)"
     id="g249">
    <path
       id="path231"
       fill="#264de4"
       d="M 127.84387,360.08791 23.661714,331.16624 0.44518681,70.765714 H 255.55481 L 232.31367,331.12545 Z" />
    <path
       id="path233"
       fill="#2965f1"
       d="M 212.4167,314.54664 232.2778,92.057319 H 128 V 337.95024 Z" />
    <path
       id="path235"
       fill="#ebebeb"
       d="m 53.668571,188.63613 2.862418,31.9367 H 128 v -31.9367 z" />
    <path
       id="path237"
       fill="#ebebeb"
       d="m 47.917011,123.99473 2.903209,31.9374 H 128 v -31.9374 z" />
    <path
       id="path239"
       fill="#ebebeb"
       d="m 128,271.58013 -0.13996,0.0373 -35.568524,-9.60422 -2.273758,-25.4713 H 57.957978 L 62.432352,286.68767 127.85301,304.8489 128,304.8081 v -33.22796 z" />
    <path
       id="path247"
       fill="#ffffff"
       d="m 202.12677,188.63613 5.76563,-64.6414 h -80.00282 v 31.9374 h 45.00255 l -2.90602,32.704 h -42.09653 v 31.9367 h 39.32695 l -3.70708,41.41996 -35.61987,9.61407 v 33.22655 l 65.47271,-18.14576 0.48035,-5.39569 7.50488,-84.07983 z" />
  </g>
</svg>
