<?xml version="1.0" encoding="UTF-8" standalone="no"?>
<svg
   xmlns:dc="http://purl.org/dc/elements/1.1/"
   xmlns:cc="http://creativecommons.org/ns#"
   xmlns:rdf="http://www.w3.org/1999/02/22-rdf-syntax-ns#"
   xmlns:svg="http://www.w3.org/2000/svg"
   xmlns="http://www.w3.org/2000/svg"
   xmlns:sodipodi="http://sodipodi.sourceforge.net/DTD/sodipodi-0.dtd"
   xmlns:inkscape="http://www.inkscape.org/namespaces/inkscape"
   inkscape:version="1.0 (4035a4fb49, 2020-05-01)"
   sodipodi:docname="expressWhite.svg"
   id="svg151"
   version="1.1"
   clip-rule="evenodd"
   fill-rule="evenodd"
   image-rendering="optimizeQuality"
   text-rendering="geometricPrecision"
   shape-rendering="geometricPrecision"
   viewBox="0 0 1333.33 773.55">
  <metadata
     id="metadata157">
    <rdf:RDF>
      <cc:Work
         rdf:about="">
        <dc:format>image/svg+xml</dc:format>
        <dc:type
           rdf:resource="http://purl.org/dc/dcmitype/StillImage" />
      </cc:Work>
    </rdf:RDF>
  </metadata>
  <defs
     id="defs155" />
  <sodipodi:namedview
     inkscape:current-layer="svg151"
     inkscape:window-maximized="1"
     inkscape:window-y="0"
     inkscape:window-x="0"
     inkscape:cy="386.775"
     inkscape:cx="666.665"
     inkscape:zoom="0.9615024"
     showgrid="false"
     id="namedview153"
     inkscape:window-height="1021"
     inkscape:window-width="1920"
     inkscape:pageshadow="2"
     inkscape:pageopacity="0"
     guidetolerance="10"
     gridtolerance="10"
     objecttolerance="10"
     borderopacity="1"
     bordercolor="#666666"
     pagecolor="#ffffff" />
  <path
     style="fill:#ffffff"
     id="path149"
     fill-rule="nonzero"
     d="M1333.33 753.49c-48.5 12.33-78.5.54-105.41-39.87L1036.5 448.79l-27.67-36.67L785.29 714.5c-25.54 36.38-52.33 52.2-100 39.33l286.25-384.25-266.5-347.09c45.83-8.91 77.5-4.38 105.62 36.67l198.54 268.13 200-266.67c25.62-36.38 53.17-50.2 99.17-36.8l-103.33 137-140 182.29c-16.67 20.83-14.38 35.09.96 55.2l267.33 355.18zM.34 363.16l23.41-115.17c63.75-227.92 325-322.63 505.17-181.8 105.29 82.83 131.46 200 126.25 331.25H61.67C52.76 633.69 222.8 776.27 439.58 703.53c76.04-25.54 120.83-85.09 143.25-159.58 11.38-37.33 30.2-43.17 65.29-32.5-17.91 93.17-58.33 171-143.75 219.71-127.62 72.91-309.8 49.33-405.62-52C41.66 620.36 18.08 545.87 7.5 466.2c-1.67-13.17-5-25.71-7.5-38.33.22-21.56.34-43.11.34-64.67v-.04zm62.41-15.83h536.33c-3.5-170.83-109.87-292.17-255.25-293.2-159.58-1.25-274.17 117.2-281.09 293.2h.01z" />
</svg>
