<?xml version="1.0" encoding="UTF-8" standalone="no"?>
<svg
   xmlns:dc="http://purl.org/dc/elements/1.1/"
   xmlns:cc="http://creativecommons.org/ns#"
   xmlns:rdf="http://www.w3.org/1999/02/22-rdf-syntax-ns#"
   xmlns:svg="http://www.w3.org/2000/svg"
   xmlns="http://www.w3.org/2000/svg"
   xmlns:sodipodi="http://sodipodi.sourceforge.net/DTD/sodipodi-0.dtd"
   xmlns:inkscape="http://www.inkscape.org/namespaces/inkscape"
   inkscape:version="1.0 (4035a4fb49, 2020-05-01)"
   sodipodi:docname="html.svg"
   id="svg480"
   preserveAspectRatio="xMidYMid"
   version="1.1"
   viewBox="0 0 255.10962 289.3222"
   height="289.3222"
   width="255.10962">
  <metadata
     id="metadata486">
    <rdf:RDF>
      <cc:Work
         rdf:about="">
        <dc:format>image/svg+xml</dc:format>
        <dc:type
           rdf:resource="http://purl.org/dc/dcmitype/StillImage" />
      </cc:Work>
    </rdf:RDF>
  </metadata>
  <defs
     id="defs484" />
  <sodipodi:namedview
     inkscape:current-layer="g478"
     inkscape:window-maximized="1"
     inkscape:window-y="0"
     inkscape:window-x="0"
     inkscape:cy="109.73429"
     inkscape:cx="127.55481"
     inkscape:zoom="2.365651"
     showgrid="false"
     id="namedview482"
     inkscape:window-height="1021"
     inkscape:window-width="1920"
     inkscape:pageshadow="2"
     inkscape:pageopacity="0"
     guidetolerance="10"
     gridtolerance="10"
     objecttolerance="10"
     borderopacity="1"
     bordercolor="#666666"
     pagecolor="#ffffff" />
  <g
     transform="translate(-0.44518681,-70.765714)"
     id="g478">
    <path
       id="path458"
       fill="#e44d26"
       d="M 255.55481,70.765714 232.31367,331.12545 127.84387,360.08791 23.661714,331.16624 0.44518681,70.765714 Z" />
    <path
       id="path460"
       fill="#f16529"
       d="m 128,337.95024 84.4167,-23.4036 19.8611,-222.489321 H 128 Z" />
    <path
       id="path462"
       fill="#ebebeb"
       d="M 82.82022,155.93213 H 128 v -31.9374 H 47.917011 l 0.764483,8.56826 7.849495,88.00984 H 128 v -31.9367 H 85.738901 Z" />
    <path
       id="path464"
       fill="#ebebeb"
       d="m 90.017758,236.54189 h -32.05978 l 4.474374,50.14576 65.420658,18.16123 0.14699,-0.0408 v -33.22796 l -0.13996,0.0373 -35.568524,-9.60422 -2.273758,-25.4713 z" />
    <path
       id="path474"
       fill="#ffffff"
       d="m 127.88958,220.57283 h 39.32695 l -3.70708,41.41996 -35.61987,9.61407 v 33.22655 l 65.47271,-18.14576 0.48035,-5.39569 7.50488,-84.07983 0.77925,-8.576 h -74.23719 z" />
    <path
       id="path476"
       fill="#ffffff"
       d="m 127.88958,155.85407 v 0.0781 h 77.14321 l 0.6407,-7.17855 1.45512,-16.19059 0.76379,-8.56826 h -80.00282 v 31.85934 z" />
  </g>
</svg>
