<svg width="130" height="130" xmlns="http://www.w3.org/2000/svg" preserveAspectRatio="xMidYMid">

 <g>
  <title>background</title>
  <rect fill="none" id="canvas_background" height="132" width="132" y="-1" x="-1"/>
 </g>
 <g>
  <title>Layer 1</title>
  <g id="svg_1">
   <path id="svg_8" fill="#006087" d="m119.984363,0l-110.421033,0c-5.27657,0 -9.563332,4.182383 -9.563332,9.339276l0,110.885343c0,5.161392 4.286762,9.350073 9.563332,9.350073l110.421033,0c5.285568,0 9.592127,-4.188681 9.592127,-9.350073l0,-110.885343c0,-5.156893 -4.306559,-9.339276 -9.592127,-9.339276"/>
   <path id="svg_9" fill="#FFFFFF" d="m28.824068,17.839016c6.1458,0 11.138025,4.993125 11.138025,11.139824c0,6.151199 -4.992225,11.146123 -11.138025,11.146123c-6.158397,0 -11.144323,-4.994924 -11.144323,-11.146123c0,-6.146699 4.985926,-11.139824 11.144323,-11.139824l0,0zm-9.612822,30.738896l19.218446,0l0,61.836823l-19.218446,0l0,-61.836823z"/>
   <path id="svg_10" fill="#FFFFFF" d="m50.483738,48.577912l18.436499,0l0,8.44845l0.25555,0c2.564499,-4.860851 8.834474,-9.987149 18.183648,-9.987149c19.461399,0 23.054398,12.807198 23.054398,29.456646l0,33.918876l-19.204949,0l0,-30.071227c0,-7.174299 -0.132275,-16.397498 -9.98715,-16.397498c-10.001546,0 -11.533047,7.812275 -11.533047,15.878299l0,30.590426l-19.204949,0l0,-61.836823"/>
  </g>
 </g>
</svg>